<?xml version="1.0" encoding="utf-8"?>
<!-- Generator: Adobe Illustrator 18.0.0, SVG Export Plug-In . SVG Version: 6.00 Build 0)  -->
<!DOCTYPE svg PUBLIC "-//W3C//DTD SVG 1.1//EN" "http://www.w3.org/Graphics/SVG/1.1/DTD/svg11.dtd">
<svg version="1.1" id="Capa_1" xmlns="http://www.w3.org/2000/svg" xmlns:xlink="http://www.w3.org/1999/xlink" x="0px" y="0px"
	 viewBox="0 0 524.3 150" enable-background="new 0 0 524.3 150" xml:space="preserve">
<g>
	<g>
		<g>
			<circle fill="#1F6DAB" cx="109" cy="25.1" r="11.5"/>
			<path fill="#1F6DAB" d="M95.3,30.8c0,0,4,9,13.8,8.8s13.3-7.3,13.8-8.8c0,0,11,6,17,25.5c0,0-31.5-7.8-61,0
				C78.8,56.3,82.3,40.6,95.3,30.8z"/>
		</g>
		<g>
			<circle fill="#459A48" cx="141.6" cy="72.3" r="11.5"/>
			<path fill="#459A48" d="M129.9,63.1c0,0-5.9,7.9-1,16.3s12.8,8.1,14.3,7.8c0,0,0.1,12.5-14.1,27.2c0,0-8.5-31.3-29.6-53.4
				C99.6,61,115.1,56.4,129.9,63.1z"/>
		</g>
		<g>
			<circle fill="#8C3689" cx="117.9" cy="123.2" r="11.5"/>
			<path fill="#8C3689" d="M119.9,108.5c0,0-9.8-1.1-14.5,7.4c-4.7,8.5-0.4,15.1,0.6,16.3c0,0-10.7,6.5-30.6,1.8
				c0,0,22.6-23.3,30.9-52.6C106.3,81.3,118.1,92.3,119.9,108.5z"/>
		</g>
		<g>
			<circle fill="#B1282F" cx="60.4" cy="128.7" r="11.5"/>
			<path fill="#B1282F" d="M74.2,123c0,0-4-9-13.7-8.8s-13.3,7.2-13.8,8.7c0,0-11-6-16.9-25.5c0,0,31.5,7.8,61,0.2
				C90.7,97.6,87.2,113.3,74.2,123z"/>
		</g>
		<g>
			<circle fill="#1E9A8F" cx="28.3" cy="82" r="11.5"/>
			<path fill="#1E9A8F" d="M40.2,91c0,0,5.7-8,0.6-16.3s-13-7.7-14.5-7.4c0,0-0.4-12.5,13.3-27.6c0,0,9.3,31.1,30.9,52.6
				C70.6,92.3,55.2,97.2,40.2,91z"/>
		</g>
		<g>
			<circle fill="#5E2E84" cx="52.2" cy="30" r="11.5"/>
			<path fill="#5E2E84" d="M50.3,44.7c0,0,9.8,1,14.5-7.5s0.4-15.1-0.7-16.3c0,0,10.7-6.5,30.6-1.9c0,0-22.5,23.4-30.6,52.8
				C64.1,71.8,52.2,60.9,50.3,44.7z"/>
		</g>
	</g>
	<g>
		<g>
			<path fill="#173E87" d="M220.1,80.6h8.1v27.2c-0.7,0.2-1.6,0.5-2.9,0.8c-1.3,0.3-2.7,0.6-4.4,0.8c-1.7,0.3-3.5,0.5-5.4,0.7
				c-2,0.2-3.9,0.3-6,0.3c-4.1,0-7.8-0.7-11.2-2s-6.2-3.3-8.7-5.9c-2.4-2.6-4.3-5.7-5.6-9.5c-1.3-3.8-2-8.1-2-12.9
				c0-4.9,0.7-9.2,2.2-13c1.5-3.8,3.5-7,6-9.5c2.5-2.6,5.5-4.5,8.9-5.9c3.4-1.3,7-2,10.9-2c2.6,0,5,0.2,7,0.5c2,0.3,3.8,0.7,5.3,1.2
				c1.5,0.4,2.6,0.9,3.6,1.3c0.9,0.4,1.6,0.8,1.9,1l-2.6,6.8c-1.6-1.1-3.8-1.9-6.5-2.6c-2.7-0.7-5.4-1-8.2-1c-3,0-5.7,0.5-8.1,1.6
				c-2.4,1.1-4.5,2.6-6.2,4.6c-1.7,2-3,4.5-4,7.4c-1,2.9-1.4,6.1-1.4,9.7c0,3.5,0.4,6.6,1.2,9.5c0.8,2.9,2,5.3,3.7,7.4
				c1.7,2,3.7,3.6,6.1,4.7s5.3,1.7,8.6,1.7c2.4,0,4.4-0.1,6-0.4c1.7-0.3,2.8-0.5,3.6-0.7V80.6z"/>
			<path fill="#173E87" d="M238.1,87.5c0-3.9,0.6-7.2,1.7-10.1c1.1-2.9,2.6-5.3,4.5-7.2c1.8-1.9,4-3.3,6.4-4.3
				c2.4-1,4.9-1.4,7.4-1.4c5.9,0,10.4,1.8,13.5,5.5s4.7,9.3,4.7,16.8c0,0.3,0,0.8,0,1.3c0,0.5,0,1-0.1,1.5h-29.9
				c0.3,4.5,1.7,8,3.9,10.3c2.3,2.4,5.9,3.5,10.8,3.5c2.7,0,5.1-0.2,6.9-0.7c1.9-0.5,3.3-0.9,4.2-1.4l1.1,6.6c-1,0.5-2.6,1-5,1.6
				c-2.4,0.6-5.1,0.8-8.1,0.8c-3.8,0-7.1-0.6-9.9-1.7s-5.1-2.7-6.8-4.7c-1.8-2-3.1-4.4-4-7.2C238.5,93.8,238.1,90.8,238.1,87.5z
				 M268.1,83.2c0.1-3.5-0.8-6.4-2.6-8.7c-1.8-2.3-4.3-3.4-7.5-3.4c-1.8,0-3.4,0.4-4.7,1c-1.4,0.7-2.5,1.6-3.5,2.7
				c-1,1.1-1.7,2.4-2.2,3.9c-0.5,1.5-0.9,2.9-1.1,4.5H268.1z"/>
			<path fill="#173E87" d="M297.6,103.6c3.2,0,5.6-0.4,7.1-1.3c1.5-0.8,2.3-2.2,2.3-4c0-1.9-0.8-3.4-2.3-4.5c-1.5-1.1-4-2.4-7.5-3.8
				c-1.7-0.7-3.3-1.4-4.8-2.1c-1.5-0.7-2.9-1.5-4-2.5c-1.1-1-2-2.1-2.7-3.4s-1-3-1-5c0-3.9,1.4-6.9,4.3-9.2
				c2.9-2.3,6.7-3.4,11.7-3.4c1.2,0,2.5,0.1,3.7,0.2c1.2,0.1,2.4,0.3,3.4,0.5c1.1,0.2,2,0.4,2.8,0.6c0.8,0.2,1.4,0.4,1.9,0.6
				l-1.4,6.7c-0.8-0.4-2.2-0.9-3.9-1.4c-1.8-0.5-3.9-0.7-6.5-0.7c-2.2,0-4.1,0.4-5.7,1.3c-1.6,0.9-2.4,2.2-2.4,4.1
				c0,1,0.2,1.8,0.5,2.5c0.4,0.7,0.9,1.4,1.7,2c0.8,0.6,1.7,1.1,2.8,1.6c1.1,0.5,2.5,1,4,1.6c2.1,0.8,3.9,1.6,5.5,2.3
				c1.6,0.8,3,1.6,4.2,2.6c1.1,1,2,2.2,2.6,3.7s0.9,3.2,0.9,5.3c0,4-1.5,7.1-4.5,9.2c-3,2.1-7.3,3.1-12.8,3.1c-3.9,0-6.9-0.3-9.1-1
				c-2.2-0.6-3.7-1.1-4.5-1.5l1.4-6.7c0.9,0.3,2.3,0.8,4.3,1.5C291.8,103.3,294.4,103.6,297.6,103.6z"/>
			<path fill="#173E87" d="M332.3,65.6h16.5v6.6h-16.5v20.2c0,2.2,0.2,4,0.5,5.4s0.8,2.5,1.5,3.4c0.7,0.8,1.5,1.4,2.5,1.7
				c1,0.3,2.2,0.5,3.5,0.5c2.4,0,4.2-0.3,5.7-0.8c1.4-0.5,2.4-0.9,3-1.1l1.5,6.5c-0.8,0.4-2.2,0.9-4.1,1.5c-2,0.6-4.2,0.9-6.7,0.9
				c-3,0-5.4-0.4-7.3-1.1c-1.9-0.8-3.5-1.9-4.7-3.4c-1.2-1.5-2-3.4-2.5-5.6c-0.5-2.2-0.7-4.8-0.7-7.7v-39l7.8-1.3V65.6z"/>
			<path fill="#173E87" d="M358.7,109.2V45.4l7.8-1.3v22.3c1.5-0.6,3-1,4.7-1.3c1.7-0.3,3.3-0.5,4.9-0.5c3.5,0,6.4,0.5,8.7,1.5
				c2.3,1,4.1,2.4,5.5,4.1c1.4,1.8,2.3,3.9,2.9,6.3c0.6,2.5,0.8,5.2,0.8,8.1v24.5h-7.8V86.4c0-2.7-0.2-5-0.5-6.9
				c-0.4-1.9-1-3.4-1.8-4.6c-0.8-1.2-2-2-3.4-2.6c-1.4-0.5-3.1-0.8-5.2-0.8c-0.8,0-1.7,0.1-2.6,0.2c-0.9,0.1-1.8,0.2-2.6,0.4
				c-0.8,0.1-1.5,0.3-2.2,0.5c-0.6,0.2-1.1,0.3-1.4,0.4v36.3H358.7z"/>
			<path fill="#173E87" d="M445.2,87.4c0,3.5-0.5,6.6-1.5,9.4c-1,2.8-2.4,5.2-4.2,7.2c-1.8,2-4,3.6-6.5,4.7
				c-2.5,1.1-5.3,1.6-8.2,1.6c-3,0-5.7-0.5-8.2-1.6c-2.5-1.1-4.7-2.6-6.5-4.7c-1.8-2-3.2-4.4-4.2-7.2c-1-2.8-1.5-5.9-1.5-9.4
				c0-3.4,0.5-6.5,1.5-9.4c1-2.8,2.4-5.3,4.2-7.3c1.8-2,4-3.6,6.5-4.7c2.5-1.1,5.3-1.6,8.2-1.6c3,0,5.7,0.5,8.2,1.6
				c2.5,1.1,4.7,2.6,6.5,4.7c1.8,2,3.2,4.4,4.2,7.3C444.7,80.9,445.2,84,445.2,87.4z M437.1,87.4c0-4.9-1.1-8.8-3.3-11.7
				c-2.2-2.9-5.2-4.3-9-4.3c-3.8,0-6.8,1.4-9,4.3c-2.2,2.9-3.3,6.8-3.3,11.7c0,4.9,1.1,8.8,3.3,11.7c2.2,2.9,5.2,4.3,9,4.3
				c3.8,0,6.8-1.4,9-4.3C436,96.2,437.1,92.3,437.1,87.4z"/>
			<path fill="#173E87" d="M472.4,64.6c0.7,0,1.4,0,2.3,0.1c0.9,0.1,1.7,0.2,2.6,0.3c0.8,0.1,1.6,0.3,2.3,0.4
				c0.7,0.1,1.2,0.3,1.6,0.4l-1.3,6.8c-0.6-0.2-1.6-0.5-3.1-0.8c-1.4-0.3-3.3-0.5-5.5-0.5c-1.5,0-2.9,0.2-4.3,0.5
				c-1.4,0.3-2.4,0.5-2.8,0.6v36.7h-7.8V67.4c1.8-0.7,4.1-1.3,6.9-1.9C465.9,64.9,469,64.6,472.4,64.6z"/>
		</g>
	</g>
	<g>
		<path fill="#173E87" d="M510.8,50.4c0,1.7-0.3,3.2-0.8,4.6c-0.6,1.4-1.3,2.5-2.3,3.4c-0.9,0.9-2,1.6-3.3,2.1
			c-1.2,0.5-2.5,0.7-3.9,0.7c-1.4,0-2.7-0.2-3.9-0.7c-1.2-0.5-2.3-1.2-3.3-2.1c-0.9-0.9-1.7-2.1-2.3-3.4c-0.6-1.4-0.8-2.9-0.8-4.6
			c0-1.7,0.3-3.2,0.8-4.6c0.6-1.4,1.3-2.5,2.3-3.4c0.9-0.9,2-1.6,3.3-2.1c1.2-0.5,2.5-0.7,3.9-0.7c1.4,0,2.7,0.2,3.9,0.7
			c1.2,0.5,2.3,1.2,3.3,2.1c0.9,0.9,1.7,2.1,2.3,3.4C510.6,47.2,510.8,48.7,510.8,50.4z M508.6,50.4c0-1.3-0.2-2.5-0.6-3.6
			c-0.4-1.1-1-2-1.7-2.8c-0.7-0.8-1.6-1.4-2.5-1.8c-1-0.4-2.1-0.6-3.3-0.6s-2.3,0.2-3.3,0.6c-1,0.4-1.8,1-2.5,1.8
			c-0.7,0.8-1.3,1.7-1.7,2.8c-0.4,1.1-0.6,2.3-0.6,3.6c0,1.3,0.2,2.5,0.6,3.6c0.4,1.1,1,2,1.7,2.8c0.7,0.8,1.6,1.4,2.5,1.8
			c1,0.4,2.1,0.6,3.3,0.6s2.3-0.2,3.3-0.6c1-0.4,1.8-1,2.5-1.8c0.7-0.8,1.3-1.7,1.7-2.8C508.4,52.9,508.6,51.7,508.6,50.4z
			 M503.5,56.4c-0.5-0.9-1-1.8-1.5-2.6c-0.6-0.8-1.1-1.5-1.5-1.9h-2v4.5h-2.1V44.7c0.5-0.1,1.1-0.2,1.7-0.3s1.2-0.1,1.7-0.1
			c1.7,0,3,0.3,3.9,1c0.9,0.6,1.3,1.6,1.3,2.9c0,0.7-0.2,1.4-0.6,1.9c-0.4,0.6-0.9,1-1.7,1.3c0.2,0.2,0.4,0.5,0.7,0.9
			s0.5,0.8,0.8,1.2c0.3,0.4,0.6,0.9,0.8,1.4s0.5,1,0.8,1.4H503.5z M498.5,50.1h1.1c0.9,0,1.7-0.1,2.3-0.4c0.6-0.2,0.9-0.8,0.9-1.5
			c0-0.7-0.3-1.3-0.9-1.5c-0.6-0.3-1.3-0.4-2.1-0.4c-0.2,0-0.5,0-0.7,0c-0.2,0-0.5,0-0.7,0V50.1z"/>
	</g>
</g>
</svg>
